<svg xmlns="http://www.w3.org/2000/svg" width="900" height="620" viewBox="0 0 900 620">
  <defs>
    <style>
      @import url('https://fonts.googleapis.com/css2?family=JetBrains+Mono:wght@400;500;600;700&amp;display=swap');
      text { font-family: 'JetBrains Mono', 'SF Mono', monospace; }
    </style>
  </defs>

  <!-- Background -->
  <rect width="900" height="620" rx="12" fill="#0d1117"/>
  <rect x="0" y="0" width="900" height="12" rx="12" fill="#161b22"/>
  <rect x="0" y="6" width="900" height="6" fill="#161b22"/>

  <!-- Window dots -->
  <circle cx="20" cy="14" r="5" fill="#f85149"/>
  <circle cx="36" cy="14" r="5" fill="#d29922"/>
  <circle cx="52" cy="14" r="5" fill="#3fb950"/>
  <text x="450" y="18" text-anchor="middle" fill="#7d8590" font-size="11">Claude Sessions — localhost:3456</text>

  <!-- Header -->
  <text x="28" y="52" fill="#58a6ff" font-size="16" font-weight="700">󰊠</text>
  <text x="50" y="52" fill="#e6edf3" font-size="16" font-weight="600">Claude Sessions</text>

  <!-- Time range buttons -->
  <rect x="680" y="36" width="50" height="24" rx="5" fill="rgba(88,166,255,0.1)" stroke="#58a6ff" stroke-width="1"/>
  <text x="705" y="52" text-anchor="middle" fill="#58a6ff" font-size="11">Week</text>
  <rect x="736" y="36" width="56" height="24" rx="5" fill="#161b22" stroke="#30363d" stroke-width="1"/>
  <text x="764" y="52" text-anchor="middle" fill="#7d8590" font-size="11">Month</text>
  <rect x="798" y="36" width="40" height="24" rx="5" fill="#161b22" stroke="#30363d" stroke-width="1"/>
  <text x="818" y="52" text-anchor="middle" fill="#7d8590" font-size="11">All</text>

  <!-- Divider -->
  <line x1="28" y1="68" x2="872" y2="68" stroke="#30363d" stroke-width="1"/>

  <!-- Stats bar -->
  <rect x="28" y="80" width="140" height="58" rx="8" fill="#161b22" stroke="#30363d" stroke-width="1"/>
  <text x="44" y="98" fill="#7d8590" font-size="10" letter-spacing="0.5">SESSIONS</text>
  <text x="44" y="124" fill="#58a6ff" font-size="22" font-weight="700">24</text>

  <rect x="180" y="80" width="140" height="58" rx="8" fill="#161b22" stroke="#30363d" stroke-width="1"/>
  <text x="196" y="98" fill="#7d8590" font-size="10" letter-spacing="0.5">MESSAGES</text>
  <text x="196" y="124" fill="#3fb950" font-size="22" font-weight="700">1,847</text>

  <rect x="332" y="80" width="140" height="58" rx="8" fill="#161b22" stroke="#30363d" stroke-width="1"/>
  <text x="348" y="98" fill="#7d8590" font-size="10" letter-spacing="0.5">TIME</text>
  <text x="348" y="124" fill="#d29922" font-size="22" font-weight="700">18h32m</text>

  <rect x="484" y="80" width="140" height="58" rx="8" fill="#161b22" stroke="#30363d" stroke-width="1"/>
  <text x="500" y="98" fill="#7d8590" font-size="10" letter-spacing="0.5">PROJECTS</text>
  <text x="500" y="124" fill="#a371f7" font-size="22" font-weight="700">6</text>

  <!-- Heatmap -->
  <text x="28" y="162" fill="#7d8590" font-size="11">Last 30 days</text>

  <!-- Heatmap cells - 30 days -->
  <rect x="28" y="172" width="14" height="14" rx="2" fill="#161b22" stroke="#30363d" stroke-width="1"/>
  <rect x="45" y="172" width="14" height="14" rx="2" fill="#161b22" stroke="#30363d" stroke-width="1"/>
  <rect x="62" y="172" width="14" height="14" rx="2" fill="rgba(88,166,255,0.2)" stroke="rgba(88,166,255,0.3)" stroke-width="1"/>
  <rect x="79" y="172" width="14" height="14" rx="2" fill="#161b22" stroke="#30363d" stroke-width="1"/>
  <rect x="96" y="172" width="14" height="14" rx="2" fill="rgba(88,166,255,0.4)" stroke="rgba(88,166,255,0.5)" stroke-width="1"/>
  <rect x="113" y="172" width="14" height="14" rx="2" fill="rgba(88,166,255,0.2)" stroke="rgba(88,166,255,0.3)" stroke-width="1"/>
  <rect x="130" y="172" width="14" height="14" rx="2" fill="#161b22" stroke="#30363d" stroke-width="1"/>
  <rect x="147" y="172" width="14" height="14" rx="2" fill="#161b22" stroke="#30363d" stroke-width="1"/>
  <rect x="164" y="172" width="14" height="14" rx="2" fill="rgba(88,166,255,0.6)" stroke="rgba(88,166,255,0.7)" stroke-width="1"/>
  <rect x="181" y="172" width="14" height="14" rx="2" fill="rgba(88,166,255,0.4)" stroke="rgba(88,166,255,0.5)" stroke-width="1"/>
  <rect x="198" y="172" width="14" height="14" rx="2" fill="rgba(88,166,255,0.2)" stroke="rgba(88,166,255,0.3)" stroke-width="1"/>
  <rect x="215" y="172" width="14" height="14" rx="2" fill="rgba(88,166,255,0.85)" stroke="#58a6ff" stroke-width="1"/>
  <rect x="232" y="172" width="14" height="14" rx="2" fill="rgba(88,166,255,0.4)" stroke="rgba(88,166,255,0.5)" stroke-width="1"/>
  <rect x="249" y="172" width="14" height="14" rx="2" fill="#161b22" stroke="#30363d" stroke-width="1"/>
  <rect x="266" y="172" width="14" height="14" rx="2" fill="#161b22" stroke="#30363d" stroke-width="1"/>
  <rect x="283" y="172" width="14" height="14" rx="2" fill="rgba(88,166,255,0.2)" stroke="rgba(88,166,255,0.3)" stroke-width="1"/>
  <rect x="300" y="172" width="14" height="14" rx="2" fill="rgba(88,166,255,0.6)" stroke="rgba(88,166,255,0.7)" stroke-width="1"/>
  <rect x="317" y="172" width="14" height="14" rx="2" fill="rgba(88,166,255,0.4)" stroke="rgba(88,166,255,0.5)" stroke-width="1"/>
  <rect x="334" y="172" width="14" height="14" rx="2" fill="rgba(88,166,255,0.2)" stroke="rgba(88,166,255,0.3)" stroke-width="1"/>
  <rect x="351" y="172" width="14" height="14" rx="2" fill="#161b22" stroke="#30363d" stroke-width="1"/>
  <rect x="368" y="172" width="14" height="14" rx="2" fill="#161b22" stroke="#30363d" stroke-width="1"/>
  <rect x="385" y="172" width="14" height="14" rx="2" fill="rgba(88,166,255,0.85)" stroke="#58a6ff" stroke-width="1"/>
  <rect x="402" y="172" width="14" height="14" rx="2" fill="rgba(88,166,255,0.6)" stroke="rgba(88,166,255,0.7)" stroke-width="1"/>
  <rect x="419" y="172" width="14" height="14" rx="2" fill="rgba(88,166,255,0.4)" stroke="rgba(88,166,255,0.5)" stroke-width="1"/>
  <rect x="436" y="172" width="14" height="14" rx="2" fill="rgba(88,166,255,0.2)" stroke="rgba(88,166,255,0.3)" stroke-width="1"/>
  <rect x="453" y="172" width="14" height="14" rx="2" fill="rgba(88,166,255,0.4)" stroke="rgba(88,166,255,0.5)" stroke-width="1"/>
  <rect x="470" y="172" width="14" height="14" rx="2" fill="#161b22" stroke="#30363d" stroke-width="1"/>
  <rect x="487" y="172" width="14" height="14" rx="2" fill="rgba(88,166,255,0.6)" stroke="rgba(88,166,255,0.7)" stroke-width="1"/>
  <rect x="504" y="172" width="14" height="14" rx="2" fill="rgba(88,166,255,0.85)" stroke="#58a6ff" stroke-width="1"/>
  <rect x="521" y="172" width="14" height="14" rx="2" fill="rgba(88,166,255,0.4)" stroke="rgba(88,166,255,0.5)" stroke-width="1"/>

  <!-- Search bar -->
  <rect x="28" y="200" width="360" height="32" rx="6" fill="#161b22" stroke="#30363d" stroke-width="1"/>
  <text x="44" y="220" fill="#7d8590" font-size="12">Search sessions...</text>

  <!-- Day group: Today -->
  <text x="28" y="262" fill="#7d8590" font-size="12">Today</text>
  <rect x="64" y="250" width="24" height="18" rx="9" fill="#161b22" stroke="#30363d" stroke-width="1"/>
  <text x="76" y="263" text-anchor="middle" fill="#7d8590" font-size="10">5</text>

  <!-- Session 1 -->
  <rect x="28" y="274" width="844" height="56" rx="8" fill="#161b22" stroke="#30363d" stroke-width="1"/>
  <text x="44" y="296" fill="#e6edf3" font-size="12">can you help me improve the terminal</text>
  <text x="44" y="316" fill="#58a6ff" font-size="10" font-weight="500">finan</text>
  <text x="100" y="316" fill="#7d8590" font-size="10">09:46 AM</text>
  <text x="168" y="316" fill="#d29922" font-size="10">2h14m</text>
  <text x="220" y="316" fill="#3fb950" font-size="10">72 msgs</text>
  <!-- Duration bar -->
  <rect x="740" y="292" width="60" height="4" rx="2" fill="#30363d"/>
  <rect x="740" y="292" width="52" height="4" rx="2" fill="#58a6ff"/>
  <!-- Action buttons -->
  <rect x="810" y="286" width="52" height="20" rx="4" fill="rgba(63,185,80,0.1)" stroke="rgba(63,185,80,0.4)" stroke-width="1"/>
  <text x="836" y="300" text-anchor="middle" fill="#3fb950" font-size="10">resume</text>

  <!-- Session 2 -->
  <rect x="28" y="336" width="844" height="56" rx="8" fill="#161b22" stroke="#30363d" stroke-width="1"/>
  <text x="44" y="358" fill="#e6edf3" font-size="12">please review the reimbursement feature again</text>
  <text x="44" y="378" fill="#58a6ff" font-size="10" font-weight="500">finan/fo-banking</text>
  <text x="152" y="378" fill="#7d8590" font-size="10">07:14 AM</text>
  <text x="220" y="378" fill="#d29922" font-size="10">1h56m</text>
  <text x="272" y="378" fill="#3fb950" font-size="10">160 msgs</text>
  <rect x="740" y="354" width="60" height="4" rx="2" fill="#30363d"/>
  <rect x="740" y="354" width="45" height="4" rx="2" fill="#58a6ff"/>
  <rect x="810" y="348" width="52" height="20" rx="4" fill="transparent" stroke="transparent" stroke-width="1"/>
  <text x="836" y="362" text-anchor="middle" fill="transparent" font-size="10">resume</text>

  <!-- Day group: Yesterday -->
  <text x="28" y="418" fill="#7d8590" font-size="12">Yesterday</text>
  <rect x="88" y="406" width="24" height="18" rx="9" fill="#161b22" stroke="#30363d" stroke-width="1"/>
  <text x="100" y="419" text-anchor="middle" fill="#7d8590" font-size="10">3</text>

  <!-- Session 3 -->
  <rect x="28" y="430" width="844" height="56" rx="8" fill="#161b22" stroke="#30363d" stroke-width="1"/>
  <text x="44" y="452" fill="#e6edf3" font-size="12">implement spending limit request approval flow</text>
  <text x="44" y="472" fill="#58a6ff" font-size="10" font-weight="500">finan/fo-document</text>
  <text x="158" y="472" fill="#7d8590" font-size="10">03:22 PM</text>
  <text x="226" y="472" fill="#d29922" font-size="10">45m</text>
  <text x="260" y="472" fill="#3fb950" font-size="10">38 msgs</text>
  <rect x="740" y="448" width="60" height="4" rx="2" fill="#30363d"/>
  <rect x="740" y="448" width="20" height="4" rx="2" fill="#58a6ff"/>

  <!-- Session 4 -->
  <rect x="28" y="492" width="844" height="56" rx="8" fill="#161b22" stroke="#30363d" stroke-width="1"/>
  <text x="44" y="514" fill="#e6edf3" font-size="12">fix the null pointer exception in ledger sync</text>
  <text x="44" y="534" fill="#58a6ff" font-size="10" font-weight="500">finan/fo-ledger</text>
  <text x="144" y="534" fill="#7d8590" font-size="10">10:08 AM</text>
  <text x="212" y="534" fill="#d29922" font-size="10">12m</text>
  <text x="244" y="534" fill="#3fb950" font-size="10">14 msgs</text>
  <rect x="740" y="510" width="60" height="4" rx="2" fill="#30363d"/>
  <rect x="740" y="510" width="8" height="4" rx="2" fill="#58a6ff"/>

  <!-- Session 5 -->
  <rect x="28" y="554" width="844" height="56" rx="8" fill="#161b22" stroke="#30363d" stroke-width="1"/>
  <text x="44" y="576" fill="#e6edf3" font-size="12">add webhook retry logic for payment notifications</text>
  <text x="44" y="596" fill="#58a6ff" font-size="10" font-weight="500">finan/fo-order</text>
  <text x="138" y="596" fill="#7d8590" font-size="10">08:45 AM</text>
  <text x="206" y="596" fill="#d29922" font-size="10">1h10m</text>
  <text x="258" y="596" fill="#3fb950" font-size="10">86 msgs</text>
  <rect x="740" y="572" width="60" height="4" rx="2" fill="#30363d"/>
  <rect x="740" y="572" width="32" height="4" rx="2" fill="#58a6ff"/>
</svg>
